<?xml version="1.0" encoding="utf-8"?>
<!-- Generator: Adobe Illustrator 16.0.3, SVG Export Plug-In . SVG Version: 6.00 Build 0)  -->
<!DOCTYPE svg PUBLIC "-//W3C//DTD SVG 1.1//EN" "http://www.w3.org/Graphics/SVG/1.1/DTD/svg11.dtd" [
	<!ENTITY st0 "fill:none;">
]>
<svg version="1.1" id="Layer_1" xmlns="http://www.w3.org/2000/svg" xmlns:xlink="http://www.w3.org/1999/xlink" x="0px" y="0px"
	 width="1875.6px" height="632px" viewBox="-51.1 -1.2 1875.6 632" style="enable-background:new -51.1 -1.2 1875.6 632;"
	 xml:space="preserve">
<g>
	<g>
		<g>
			<g>
				<g>
					<g>
						<rect x="-51.1" y="271.7" style="&st0;" width="119.9" height="165.2"/>
					</g>
					<rect x="4.7" y="284" width="12" height="30.6"/>
					<rect x="4.7" y="339" width="12" height="30.6"/>
					<rect x="4.7" y="393.8" width="12" height="30.6"/>
				</g>
			</g>
			<g>
				<g>
					<g>
						<rect x="-51.1" y="106.7" style="&st0;" width="119.9" height="165.2"/>
					</g>
					<rect x="4.7" y="118.8" width="12" height="30.6"/>
					<rect x="4.7" y="173.8" width="12" height="30.6"/>
					<rect x="4.7" y="228.6" width="12" height="30.6"/>
				</g>
			</g>
			<g>
				<g>
					<g>
						<rect x="68.9" y="-53.2" style="&st0;" width="109.1" height="159.9"/>
					</g>
					<rect x="149.7" y="21.1" width="20.2" height="16"/>
					<rect x="113.4" y="21.1" width="20.2" height="16"/>
					<rect x="77.2" y="21.1" width="20.2" height="16"/>
				</g>
			</g>
			<g>
				<g>
					<g>
						<rect x="177.9" y="-53.2" style="&st0;" width="109.1" height="159.9"/>
					</g>
					<rect x="258.7" y="21.1" width="20.2" height="16"/>
					<rect x="222.4" y="21.1" width="20.2" height="16"/>
					<rect x="186.2" y="21.1" width="20.3" height="16"/>
				</g>
			</g>
			<g>
				<g>
					<g>
						<rect x="287" y="-53.2" style="&st0;" width="109.1" height="159.9"/>
					</g>
					<rect x="367.8" y="21.1" width="20.2" height="16"/>
					<rect x="331.5" y="21.1" width="20.2" height="16"/>
					<rect x="295.3" y="21.1" width="20.2" height="16"/>
				</g>
			</g>
			<g>
				<g>
					<g>
						<rect x="396" y="-53.2" style="&st0;" width="109.1" height="159.9"/>
					</g>
					<rect x="476.8" y="21.1" width="20.2" height="16"/>
					<rect x="440.5" y="21.1" width="20.2" height="16"/>
					<rect x="404.3" y="21.1" width="20.2" height="16"/>
				</g>
			</g>
			<g>
				<g>
					<g>
						<rect x="505.1" y="-53.2" style="&st0;" width="109" height="159.9"/>
					</g>
					<rect x="585.9" y="21.1" width="20.3" height="16"/>
					<rect x="549.6" y="21.1" width="20.2" height="16"/>
					<rect x="513.4" y="21.1" width="20.2" height="16"/>
				</g>
			</g>
			<g>
				<g>
					<g>
						<rect x="614.1" y="-53.2" style="&st0;" width="109.1" height="159.9"/>
					</g>
					<rect x="694.9" y="21.1" width="20.2" height="16"/>
					<rect x="658.6" y="21.1" width="20.2" height="16"/>
					<rect x="622.4" y="21.1" width="20.2" height="16"/>
				</g>
			</g>
			<g>
				<g>
					<g>
						<rect x="723.2" y="-53.2" style="&st0;" width="109.1" height="159.9"/>
					</g>
					<rect x="804" y="21.1" width="20.2" height="16"/>
					<rect x="767.7" y="21.1" width="20.3" height="16"/>
					<rect x="731.5" y="21.1" width="20.3" height="16"/>
				</g>
			</g>
			<g>
				<g>
					<g>
						<rect x="832.2" y="-53.2" style="&st0;" width="109" height="159.9"/>
					</g>
					<rect x="913" y="21.1" width="20.3" height="16"/>
					<rect x="876.6" y="21.1" width="20.2" height="16"/>
					<rect x="840.4" y="21.1" width="20.2" height="16"/>
				</g>
			</g>
			<g>
				<g>
					<g>
						<rect x="941.3" y="-53.2" style="&st0;" width="109" height="159.9"/>
					</g>
					<rect x="1022.1" y="21.1" width="20.3" height="16"/>
					<rect x="985.7" y="21.1" width="20.2" height="16"/>
					<rect x="949.5" y="21.1" width="20.2" height="16"/>
				</g>
			</g>
			<g>
				<g>
					<g>
						<rect x="1050.4" y="-53.2" style="&st0;" width="109" height="159.9"/>
					</g>
					<rect x="1131.1" y="21.1" width="20.3" height="16"/>
					<rect x="1094.7" y="21.1" width="20.3" height="16"/>
					<rect x="1058.5" y="21.1" width="20.3" height="16"/>
				</g>
			</g>
			<g>
				<g>
					<g>
						<rect x="1159.4" y="-53.2" style="&st0;" width="109.1" height="159.9"/>
					</g>
					<rect x="1240.2" y="21.1" width="20.2" height="16"/>
					<rect x="1203.8" y="21.1" width="20.3" height="16"/>
					<rect x="1167.6" y="21.1" width="20.3" height="16"/>
				</g>
			</g>
			<g>
				<g>
					<g>
						<rect x="1268.5" y="-53.2" style="&st0;" width="109.1" height="159.9"/>
					</g>
					<rect x="1349.1" y="21.1" width="20.2" height="16"/>
					<rect x="1312.8" y="21.1" width="20.3" height="16"/>
					<rect x="1276.6" y="21.1" width="20.3" height="16"/>
				</g>
			</g>
			<g>
				<g>
					<g>
						<rect x="1377.5" y="-53.2" style="&st0;" width="109" height="159.9"/>
					</g>
					<rect x="1458.2" y="21.1" width="20.3" height="16"/>
					<rect x="1421.9" y="21.1" width="20.2" height="16"/>
					<rect x="1385.7" y="21.1" width="20.2" height="16"/>
				</g>
			</g>
			<g>
				<g>
					<g>
						<rect x="1486.6" y="-53.2" style="&st0;" width="109.1" height="159.9"/>
					</g>
					<rect x="1567.2" y="21.1" width="20.3" height="16"/>
					<rect x="1530.9" y="21.1" width="20.2" height="16"/>
					<rect x="1494.7" y="21.1" width="20.3" height="16"/>
				</g>
			</g>
			<g>
				<g>
					<g>
						<rect x="1595.5" y="-53.2" style="&st0;" width="109.1" height="159.9"/>
					</g>
					<rect x="1676.3" y="21.1" width="20.2" height="16"/>
					<rect x="1640" y="21.1" width="20.3" height="16"/>
					<rect x="1603.8" y="21.1" width="20.3" height="16"/>
				</g>
			</g>
			<g>
				<g>
					<g>
						<rect x="1704.6" y="106.7" style="&st0;" width="119.9" height="165.2"/>
					</g>
					<rect x="1756.8" y="229" width="12" height="30.6"/>
					<rect x="1756.8" y="173.9" width="12" height="30.6"/>
					<rect x="1756.8" y="119.2" width="12" height="30.6"/>
				</g>
			</g>
			<g>
				<g>
					<g>
						<rect x="1704.6" y="271.7" style="&st0;" width="119.9" height="165.2"/>
					</g>
					<rect x="1756.8" y="394" width="12" height="30.6"/>
					<rect x="1756.8" y="339.1" width="12" height="30.6"/>
					<rect x="1756.8" y="284.3" width="12" height="30.6"/>
				</g>
			</g>
			<g>
				<g>
					<g>
						<rect x="1595.5" y="436.9" style="&st0;" width="109.1" height="159.9"/>
					</g>
					<rect x="1603.6" y="506.5" width="20.3" height="16"/>
					<rect x="1639.9" y="506.5" width="20.3" height="16"/>
					<rect x="1676.1" y="506.5" width="20.3" height="16"/>
				</g>
			</g>
			<g>
				<g>
					<g>
						<rect x="1486.6" y="436.9" style="&st0;" width="109.1" height="159.9"/>
					</g>
					<rect x="1494.5" y="506.5" width="20.3" height="16"/>
					<rect x="1530.8" y="506.5" width="20.2" height="16"/>
					<rect x="1567" y="506.5" width="20.2" height="16"/>
				</g>
			</g>
			<g>
				<g>
					<g>
						<rect x="1377.5" y="436.9" style="&st0;" width="109" height="159.9"/>
					</g>
					<rect x="1385.5" y="506.5" width="20.3" height="16"/>
					<rect x="1421.8" y="506.5" width="20.3" height="16"/>
					<rect x="1458" y="506.5" width="20.2" height="16"/>
				</g>
			</g>
			<g>
				<g>
					<g>
						<rect x="1268.5" y="436.9" style="&st0;" width="109.1" height="159.9"/>
					</g>
					<rect x="1276.4" y="506.5" width="20.2" height="16"/>
					<rect x="1312.7" y="506.5" width="20.3" height="16"/>
					<rect x="1348.9" y="506.5" width="20.3" height="16"/>
				</g>
			</g>
			<g>
				<g>
					<g>
						<rect x="1159.4" y="436.9" style="&st0;" width="109.1" height="159.9"/>
					</g>
					<rect x="1167.4" y="506.5" width="20.2" height="16"/>
					<rect x="1203.7" y="506.5" width="20.3" height="16"/>
					<rect x="1239.9" y="506.5" width="20.3" height="16"/>
				</g>
			</g>
			<g>
				<g>
					<g>
						<rect x="1050.4" y="436.9" style="&st0;" width="109" height="159.9"/>
					</g>
					<rect x="1058.3" y="506.5" width="20.3" height="16"/>
					<rect x="1094.6" y="506.5" width="20.2" height="16"/>
					<rect x="1130.8" y="506.5" width="20.3" height="16"/>
				</g>
			</g>
			<g>
				<g>
					<g>
						<rect x="941.3" y="436.9" style="&st0;" width="109" height="159.9"/>
					</g>
					<rect x="949.3" y="506.5" width="20.3" height="16"/>
					<rect x="985.7" y="506.5" width="20.2" height="16"/>
					<rect x="1021.9" y="506.5" width="20.2" height="16"/>
				</g>
			</g>
			<g>
				<g>
					<g>
						<rect x="832.2" y="436.9" style="&st0;" width="109" height="159.9"/>
					</g>
					<rect x="840.2" y="506.5" width="20.2" height="16"/>
					<rect x="876.6" y="506.5" width="20.2" height="16"/>
					<rect x="912.8" y="506.5" width="20.3" height="16"/>
				</g>
			</g>
			<g>
				<g>
					<g>
						<rect x="723.2" y="436.9" style="&st0;" width="109.1" height="159.9"/>
					</g>
					<rect x="731.2" y="506.5" width="20.2" height="16"/>
					<rect x="767.6" y="506.5" width="20.3" height="16"/>
					<rect x="803.8" y="506.5" width="20.3" height="16"/>
				</g>
			</g>
			<g>
				<g>
					<g>
						<rect x="614.1" y="436.9" style="&st0;" width="109.1" height="159.9"/>
					</g>
					<rect x="622.2" y="506.5" width="20.2" height="16"/>
					<rect x="658.5" y="506.5" width="20.2" height="16"/>
					<rect x="694.7" y="506.5" width="20.2" height="16"/>
				</g>
			</g>
			<g>
				<g>
					<g>
						<rect x="505.1" y="436.9" style="&st0;" width="109" height="159.9"/>
					</g>
					<rect x="513.2" y="506.5" width="20.3" height="16"/>
					<rect x="549.5" y="506.5" width="20.3" height="16"/>
					<rect x="585.7" y="506.5" width="20.3" height="16"/>
				</g>
			</g>
			<g>
				<g>
					<g>
						<rect x="396" y="436.9" style="&st0;" width="109.1" height="159.9"/>
					</g>
					<rect x="404.1" y="506.5" width="20.2" height="16"/>
					<rect x="440.4" y="506.5" width="20.2" height="16"/>
					<rect x="476.6" y="506.5" width="20.2" height="16"/>
				</g>
			</g>
			<g>
				<g>
					<g>
						<rect x="287" y="436.9" style="&st0;" width="109.1" height="159.9"/>
					</g>
					<rect x="295.1" y="506.5" width="20.2" height="16"/>
					<rect x="331.4" y="506.5" width="20.3" height="16"/>
					<rect x="367.6" y="506.5" width="20.3" height="16"/>
				</g>
			</g>
			<g>
				<g>
					<g>
						<rect x="177.9" y="436.9" style="&st0;" width="109.1" height="159.9"/>
					</g>
					<rect x="186" y="506.5" width="20.2" height="16"/>
					<rect x="222.3" y="506.5" width="20.2" height="16"/>
					<rect x="258.5" y="506.5" width="20.2" height="16"/>
				</g>
			</g>
			<g>
				<g>
					<g>
						<rect x="68.9" y="436.9" style="&st0;" width="109.1" height="159.9"/>
					</g>
					<rect x="77" y="506.5" width="20.3" height="16"/>
					<rect x="113.3" y="506.5" width="20.2" height="16"/>
					<rect x="149.5" y="506.5" width="20.2" height="16"/>
				</g>
			</g>
			<g>
				<rect x="3.8" y="69" width="12" height="26.6"/>
				<polygon points="3.8,21 3.8,47.6 15.9,47.6 15.9,37 23.8,37 23.8,21 				"/>
				<rect x="39.8" y="21" width="20" height="16"/>
			</g>
			<g>
				<rect x="1712.9" y="19.9" width="20" height="16"/>
				<polygon points="1768.8,19.9 1748.8,19.9 1748.8,35.9 1756.8,35.9 1756.8,46.6 1768.8,46.6 				"/>
				<rect x="1756.8" y="67.9" width="12" height="26.6"/>
			</g>
			<g>
				<rect x="1757.6" y="447.9" width="12" height="26.6"/>
				<polygon points="1769.6,522.5 1769.6,495.8 1757.6,495.8 1757.6,506.5 1749.6,506.5 1749.6,522.5 				"/>
				<rect x="1713.7" y="506.5" width="20" height="16"/>
			</g>
			<g>
				<rect x="40.7" y="507.5" width="20" height="16"/>
				<polygon points="4.7,523.7 24.7,523.7 24.7,507.5 16.7,507.5 16.7,497 4.7,497 				"/>
				<rect x="4.7" y="449.1" width="12" height="26.6"/>
			</g>
		</g>
	</g>
</g>
</svg>
