<?xml version="1.0" encoding="utf-8"?>
<!-- Generator: Adobe Illustrator 16.0.3, SVG Export Plug-In . SVG Version: 6.00 Build 0)  -->
<!DOCTYPE svg PUBLIC "-//W3C//DTD SVG 1.1//EN" "http://www.w3.org/Graphics/SVG/1.1/DTD/svg11.dtd">
<svg version="1.1" id="Layer_1" xmlns="http://www.w3.org/2000/svg" xmlns:xlink="http://www.w3.org/1999/xlink" x="0px" y="0px"
	 width="118.386px" height="118.386px" viewBox="-0.193 -0.193 118.386 118.386"
	 enable-background="new -0.193 -0.193 118.386 118.386" xml:space="preserve">
<rect x="2.307" y="2.307" fill="#FC7070" stroke="#484848" stroke-width="5" stroke-miterlimit="10" width="113.386" height="113.386"/>
<g>
	<path fill="#2D2D2D" stroke="#494949" stroke-miterlimit="10" d="M32.322,77.711h4.73l14.606-19.503L37.716,39.949h-4.979V29.16
		h25.23v10.789h-5.146l5.644,7.469c1.161,1.494,1.908,2.739,1.908,2.739h0.166c0,0.083,0.664-1.162,1.826-2.739l5.478-7.469h-4.979
		V29.16h23.901v10.789h-4.73L67.511,59.204l14.274,18.507h4.813V88.5H61.369V77.711h5.313l-5.977-7.801
		c-1.162-1.494-1.909-2.822-1.909-2.822h-0.165c-0.166,0-0.747,1.245-1.826,2.822l-5.561,7.801h5.146V88.5H32.322V77.711z"/>
</g>
</svg>
