<?xml version="1.0" encoding="utf-8"?>
<!-- Generator: Adobe Illustrator 16.0.3, SVG Export Plug-In . SVG Version: 6.00 Build 0)  -->
<!DOCTYPE svg PUBLIC "-//W3C//DTD SVG 1.1//EN" "http://www.w3.org/Graphics/SVG/1.1/DTD/svg11.dtd" [
	<!ENTITY st0 "fill-rule:evenodd;clip-rule:evenodd;">
	<!ENTITY st1 "fill:none;">
]>
<svg version="1.1" id="Layer_1" xmlns="http://www.w3.org/2000/svg" xmlns:xlink="http://www.w3.org/1999/xlink" x="0px" y="0px"
	 width="1776.9px" height="548.6px" viewBox="0 0 1776.9 548.6" style="enable-background:new 0 0 1776.9 548.6;"
	 xml:space="preserve">
<g>
	<g>
		<g>
			<g>
				<g>
					<g>
						<rect x="-51.9" y="221.4" style="&st1;" width="120" height="124"/>
					</g>
					<rect x="3.9" y="230.6" style="&st0;" width="12" height="23"/>
					<rect x="3.9" y="271.9" style="&st0;" width="12" height="23"/>
					<rect x="3.9" y="313" style="&st0;" width="12" height="23"/>
				</g>
			</g>
			<g>
				<g>
					<g>
						<rect x="-51.9" y="97.5" style="&st1;" width="120" height="124"/>
					</g>
					<rect x="3.9" y="106.6" style="&st0;" width="12" height="23"/>
					<rect x="3.9" y="147.9" style="&st0;" width="12" height="23"/>
					<rect x="3.9" y="189" style="&st0;" width="12" height="23"/>
				</g>
			</g>
			<g>
				<g>
					<g>
						<rect x="68.1" y="-22.5" style="&st1;" width="109.1" height="120"/>
					</g>
					<rect x="148.9" y="33.3" style="&st0;" width="20.2" height="12"/>
					<rect x="112.6" y="33.3" style="&st0;" width="20.2" height="12"/>
					<rect x="76.4" y="33.3" style="&st0;" width="20.2" height="12"/>
				</g>
			</g>
			<g>
				<g>
					<g>
						<rect x="177.2" y="-22.5" style="&st1;" width="109.1" height="120"/>
					</g>
					<rect x="258" y="33.3" style="&st0;" width="20.2" height="12"/>
					<rect x="221.7" y="33.3" style="&st0;" width="20.2" height="12"/>
					<rect x="185.5" y="33.3" style="&st0;" width="20.3" height="12"/>
				</g>
			</g>
			<g>
				<g>
					<g>
						<rect x="286.3" y="-22.5" style="&st1;" width="109.1" height="120"/>
					</g>
					<rect x="367.1" y="33.3" style="&st0;" width="20.2" height="12"/>
					<rect x="330.8" y="33.3" style="&st0;" width="20.2" height="12"/>
					<rect x="294.6" y="33.3" style="&st0;" width="20.2" height="12"/>
				</g>
			</g>
			<g>
				<g>
					<g>
						<rect x="395.4" y="-22.5" style="&st1;" width="109.1" height="120"/>
					</g>
					<rect x="476.2" y="33.3" style="&st0;" width="20.2" height="12"/>
					<rect x="439.9" y="33.3" style="&st0;" width="20.2" height="12"/>
					<rect x="403.7" y="33.3" style="&st0;" width="20.2" height="12"/>
				</g>
			</g>
			<g>
				<g>
					<g>
						<rect x="504.5" y="-22.5" style="&st1;" width="109.1" height="120"/>
					</g>
					<rect x="585.3" y="33.3" style="&st0;" width="20.3" height="12"/>
					<rect x="549" y="33.3" style="&st0;" width="20.2" height="12"/>
					<rect x="512.8" y="33.3" style="&st0;" width="20.2" height="12"/>
				</g>
			</g>
			<g>
				<g>
					<g>
						<rect x="613.6" y="-22.5" style="&st1;" width="109.1" height="120"/>
					</g>
					<rect x="694.4" y="33.3" style="&st0;" width="20.2" height="12"/>
					<rect x="658.1" y="33.3" style="&st0;" width="20.2" height="12"/>
					<rect x="621.9" y="33.3" style="&st0;" width="20.2" height="12"/>
				</g>
			</g>
			<g>
				<g>
					<g>
						<rect x="722.7" y="-22.5" style="&st1;" width="109.1" height="120"/>
					</g>
					<rect x="803.5" y="33.3" style="&st0;" width="20.2" height="12"/>
					<rect x="767.2" y="33.3" style="&st0;" width="20.3" height="12"/>
					<rect x="731" y="33.3" style="&st0;" width="20.3" height="12"/>
				</g>
			</g>
			<g>
				<g>
					<g>
						<rect x="831.8" y="-22.5" style="&st1;" width="109.1" height="120"/>
					</g>
					<rect x="912.6" y="33.3" style="&st0;" width="20.3" height="12"/>
					<rect x="876.2" y="33.3" style="&st0;" width="20.2" height="12"/>
					<rect x="840" y="33.3" style="&st0;" width="20.2" height="12"/>
				</g>
			</g>
			<g>
				<g>
					<g>
						<rect x="940.9" y="-22.5" style="&st1;" width="109.1" height="120"/>
					</g>
					<rect x="1021.7" y="33.3" style="&st0;" width="20.3" height="12"/>
					<rect x="985.3" y="33.3" style="&st0;" width="20.2" height="12"/>
					<rect x="949.1" y="33.3" style="&st0;" width="20.2" height="12"/>
				</g>
			</g>
			<g>
				<g>
					<g>
						<rect x="1050" y="-22.5" style="&st1;" width="109.1" height="120"/>
					</g>
					<rect x="1130.8" y="33.3" style="&st0;" width="20.3" height="12"/>
					<rect x="1094.4" y="33.3" style="&st0;" width="20.3" height="12"/>
					<rect x="1058.2" y="33.3" style="&st0;" width="20.3" height="12"/>
				</g>
			</g>
			<g>
				<g>
					<g>
						<rect x="1159.1" y="-22.5" style="&st1;" width="109.1" height="120"/>
					</g>
					<rect x="1239.9" y="33.3" style="&st0;" width="20.2" height="12"/>
					<rect x="1203.5" y="33.3" style="&st0;" width="20.3" height="12"/>
					<rect x="1167.3" y="33.3" style="&st0;" width="20.3" height="12"/>
				</g>
			</g>
			<g>
				<g>
					<g>
						<rect x="1268.2" y="-22.5" style="&st1;" width="109.1" height="120"/>
					</g>
					<rect x="1348.9" y="33.3" style="&st0;" width="20.2" height="12"/>
					<rect x="1312.6" y="33.3" style="&st0;" width="20.3" height="12"/>
					<rect x="1276.4" y="33.3" style="&st0;" width="20.3" height="12"/>
				</g>
			</g>
			<g>
				<g>
					<g>
						<rect x="1377.3" y="-22.5" style="&st1;" width="109.1" height="120"/>
					</g>
					<rect x="1458" y="33.3" style="&st0;" width="20.3" height="12"/>
					<rect x="1421.7" y="33.3" style="&st0;" width="20.2" height="12"/>
					<rect x="1385.5" y="33.3" style="&st0;" width="20.2" height="12"/>
				</g>
			</g>
			<g>
				<g>
					<g>
						<rect x="1486.4" y="-22.5" style="&st1;" width="109.1" height="120"/>
					</g>
					<rect x="1567.1" y="33.3" style="&st0;" width="20.3" height="12"/>
					<rect x="1530.8" y="33.3" style="&st0;" width="20.2" height="12"/>
					<rect x="1494.6" y="33.3" style="&st0;" width="20.3" height="12"/>
				</g>
			</g>
			<g>
				<g>
					<g>
						<rect x="1595.4" y="-22.5" style="&st1;" width="109.1" height="120"/>
					</g>
					<rect x="1676.2" y="33.3" style="&st0;" width="20.2" height="12"/>
					<rect x="1639.9" y="33.3" style="&st0;" width="20.3" height="12"/>
					<rect x="1603.7" y="33.3" style="&st0;" width="20.3" height="12"/>
				</g>
			</g>
			<g>
				<g>
					<g>
						<rect x="1704.5" y="97.5" style="&st1;" width="120" height="124"/>
					</g>
					<rect x="1756.8" y="189.3" style="&st0;" width="12" height="23"/>
					<rect x="1756.8" y="148" style="&st0;" width="12" height="23"/>
					<rect x="1756.8" y="106.9" style="&st0;" width="12" height="23"/>
				</g>
			</g>
			<g>
				<g>
					<g>
						<rect x="1704.5" y="221.4" style="&st1;" width="120" height="124"/>
					</g>
					<rect x="1756.8" y="313.2" style="&st0;" width="12" height="23"/>
					<rect x="1756.8" y="272" style="&st0;" width="12" height="23"/>
					<rect x="1756.8" y="230.8" style="&st0;" width="12" height="23"/>
				</g>
			</g>
			<g>
				<g>
					<g>
						<rect x="1595.4" y="345.4" style="&st1;" width="109.1" height="120"/>
					</g>
					<rect x="1603.5" y="397.6" style="&st0;" width="20.3" height="12"/>
					<rect x="1639.8" y="397.6" style="&st0;" width="20.3" height="12"/>
					<rect x="1676" y="397.6" style="&st0;" width="20.3" height="12"/>
				</g>
			</g>
			<g>
				<g>
					<g>
						<rect x="1486.4" y="345.4" style="&st1;" width="109.1" height="120"/>
					</g>
					<rect x="1494.4" y="397.6" style="&st0;" width="20.3" height="12"/>
					<rect x="1530.7" y="397.6" style="&st0;" width="20.2" height="12"/>
					<rect x="1566.9" y="397.6" style="&st0;" width="20.2" height="12"/>
				</g>
			</g>
			<g>
				<g>
					<g>
						<rect x="1377.3" y="345.4" style="&st1;" width="109.1" height="120"/>
					</g>
					<rect x="1385.3" y="397.6" style="&st0;" width="20.3" height="12"/>
					<rect x="1421.6" y="397.6" style="&st0;" width="20.3" height="12"/>
					<rect x="1457.8" y="397.6" style="&st0;" width="20.2" height="12"/>
				</g>
			</g>
			<g>
				<g>
					<g>
						<rect x="1268.2" y="345.4" style="&st1;" width="109.1" height="120"/>
					</g>
					<rect x="1276.2" y="397.6" style="&st0;" width="20.2" height="12"/>
					<rect x="1312.5" y="397.6" style="&st0;" width="20.3" height="12"/>
					<rect x="1348.7" y="397.6" style="&st0;" width="20.3" height="12"/>
				</g>
			</g>
			<g>
				<g>
					<g>
						<rect x="1159.1" y="345.4" style="&st1;" width="109.1" height="120"/>
					</g>
					<rect x="1167.1" y="397.6" style="&st0;" width="20.2" height="12"/>
					<rect x="1203.4" y="397.6" style="&st0;" width="20.3" height="12"/>
					<rect x="1239.6" y="397.6" style="&st0;" width="20.3" height="12"/>
				</g>
			</g>
			<g>
				<g>
					<g>
						<rect x="1050" y="345.4" style="&st1;" width="109.1" height="120"/>
					</g>
					<rect x="1058" y="397.6" style="&st0;" width="20.3" height="12"/>
					<rect x="1094.3" y="397.6" style="&st0;" width="20.2" height="12"/>
					<rect x="1130.5" y="397.6" style="&st0;" width="20.3" height="12"/>
				</g>
			</g>
			<g>
				<g>
					<g>
						<rect x="940.9" y="345.4" style="&st1;" width="109.1" height="120"/>
					</g>
					<rect x="948.9" y="397.6" style="&st0;" width="20.3" height="12"/>
					<rect x="985.3" y="397.6" style="&st0;" width="20.2" height="12"/>
					<rect x="1021.5" y="397.6" style="&st0;" width="20.2" height="12"/>
				</g>
			</g>
			<g>
				<g>
					<g>
						<rect x="831.8" y="345.4" style="&st1;" width="109.1" height="120"/>
					</g>
					<rect x="839.8" y="397.6" style="&st0;" width="20.2" height="12"/>
					<rect x="876.2" y="397.6" style="&st0;" width="20.2" height="12"/>
					<rect x="912.4" y="397.6" style="&st0;" width="20.3" height="12"/>
				</g>
			</g>
			<g>
				<g>
					<g>
						<rect x="722.7" y="345.4" style="&st1;" width="109.1" height="120"/>
					</g>
					<rect x="730.7" y="397.6" style="&st0;" width="20.2" height="12"/>
					<rect x="767.1" y="397.6" style="&st0;" width="20.3" height="12"/>
					<rect x="803.3" y="397.6" style="&st0;" width="20.3" height="12"/>
				</g>
			</g>
			<g>
				<g>
					<g>
						<rect x="613.6" y="345.4" style="&st1;" width="109.1" height="120"/>
					</g>
					<rect x="621.7" y="397.6" style="&st0;" width="20.2" height="12"/>
					<rect x="658" y="397.6" style="&st0;" width="20.2" height="12"/>
					<rect x="694.2" y="397.6" style="&st0;" width="20.2" height="12"/>
				</g>
			</g>
			<g>
				<g>
					<g>
						<rect x="504.5" y="345.4" style="&st1;" width="109.1" height="120"/>
					</g>
					<rect x="512.6" y="397.6" style="&st0;" width="20.3" height="12"/>
					<rect x="548.9" y="397.6" style="&st0;" width="20.3" height="12"/>
					<rect x="585.1" y="397.6" style="&st0;" width="20.3" height="12"/>
				</g>
			</g>
			<g>
				<g>
					<g>
						<rect x="395.4" y="345.4" style="&st1;" width="109.1" height="120"/>
					</g>
					<rect x="403.5" y="397.6" style="&st0;" width="20.2" height="12"/>
					<rect x="439.8" y="397.6" style="&st0;" width="20.2" height="12"/>
					<rect x="476" y="397.6" style="&st0;" width="20.2" height="12"/>
				</g>
			</g>
			<g>
				<g>
					<g>
						<rect x="286.3" y="345.4" style="&st1;" width="109.1" height="120"/>
					</g>
					<rect x="294.4" y="397.6" style="&st0;" width="20.2" height="12"/>
					<rect x="330.7" y="397.6" style="&st0;" width="20.3" height="12"/>
					<rect x="366.9" y="397.6" style="&st0;" width="20.3" height="12"/>
				</g>
			</g>
			<g>
				<g>
					<g>
						<rect x="177.2" y="345.4" style="&st1;" width="109.1" height="120"/>
					</g>
					<rect x="185.3" y="397.6" style="&st0;" width="20.2" height="12"/>
					<rect x="221.6" y="397.6" style="&st0;" width="20.2" height="12"/>
					<rect x="257.8" y="397.6" style="&st0;" width="20.2" height="12"/>
				</g>
			</g>
			<g>
				<g>
					<g>
						<rect x="68.1" y="345.4" style="&st1;" width="109.1" height="120"/>
					</g>
					<rect x="76.2" y="397.6" style="&st0;" width="20.3" height="12"/>
					<rect x="112.5" y="397.6" style="&st0;" width="20.2" height="12"/>
					<rect x="148.7" y="397.6" style="&st0;" width="20.2" height="12"/>
				</g>
			</g>
			<g>
				<rect x="3" y="69.2" style="&st0;" width="12" height="20"/>
				<polygon style="&st0;" points="3,33.2 3,53.2 15.1,53.2 15.1,45.2 23,45.2 23,33.2 				"/>
				<rect x="39" y="33.2" style="&st0;" width="20" height="12"/>
			</g>
			<g>
				<rect x="1712.8" y="32.4" style="&st0;" width="20" height="12"/>
				<polygon style="&st0;" points="1768.8,32.4 1748.8,32.4 1748.8,44.4 1756.8,44.4 1756.8,52.4 1768.8,52.4 				"/>
				<rect x="1756.8" y="68.4" style="&st0;" width="12" height="20"/>
			</g>
			<g>
				<rect x="1757.6" y="353.6" style="&st0;" width="12" height="20"/>
				<polygon style="&st0;" points="1769.6,409.6 1769.6,389.6 1757.6,389.6 1757.6,397.6 1749.6,397.6 1749.6,409.6 				"/>
				<rect x="1713.6" y="397.6" style="&st0;" width="20" height="12"/>
			</g>
			<g>
				<rect x="39.9" y="398.4" style="&st0;" width="20" height="12"/>
				<polygon style="&st0;" points="3.9,410.5 23.9,410.5 23.9,398.4 15.9,398.4 15.9,390.5 3.9,390.5 				"/>
				<rect x="3.9" y="354.5" style="&st0;" width="12" height="20"/>
			</g>
		</g>
	</g>
</g>
</svg>
